<svg width="131" height="50" viewBox="0 0 131 50" fill="none" xmlns="http://www.w3.org/2000/svg">
<g clip-path="url(#clip0_493_991)">
<path d="M0 0H130.562L130.678 1.00594C131.197 2.143 131.367 23.0182 130.906 24.2623L130.674 24.7396L130.677 25.716C131.197 26.8959 131.356 46.8606 130.896 48.0391L130.677 48.4843C130.842 49.1787 130.823 49.3351 130.562 50H0V48.6008V25.5963V24.6356V1.36565V0ZM54.5316 26.1226C54.8804 26.9207 56.5895 27.688 57.3516 28.4182C60.9474 31.864 61.3011 38.3413 59.5797 42.747C58.5278 45.4392 56.8473 46.9679 54.2759 48.1365C57.2032 48.1347 79.7678 48.5599 80.7118 47.8773C80.3549 46.9465 79.0128 46.1431 78.3184 45.3072C75.3472 41.7306 75.0836 35.7304 76.9486 31.558C77.5895 30.1241 78.5923 28.7867 79.7728 27.7525C80.3498 27.247 81.3507 26.8784 81.6819 26.2017C77.1697 25.6121 72.1706 26.0283 67.5946 26.0397C63.2837 26.0504 58.8235 25.7584 54.5316 26.1226ZM91.18 26.1247L91.1567 26.625C93.4663 27.584 95.1431 29.3914 96.0989 31.6983C97.5063 35.0953 97.496 39.4934 96.0908 42.8765C95.0287 45.4336 93.36 47.0553 90.8146 48.1037L90.7192 48.1428L106.937 48.1816L113.072 48.0601C113.253 47.7731 113.452 47.3856 113.482 47.046C113.911 42.2629 113.504 37.0886 113.491 32.2675C113.486 30.6542 113.836 28.3851 113.504 26.8442C113.447 26.58 113.304 26.3044 113.155 26.08C108.313 26.0222 103.471 26.0226 98.6289 26.0182C96.23 26.016 93.5555 25.8054 91.18 26.1247ZM22.9647 26.0272L22.9773 48.1465L45.3213 48.1479C43.8601 47.2457 42.6331 46.4279 41.5465 45.0826C39.2544 41.6107 38.9126 37.782 39.7398 33.7605C40.2151 31.4494 41.6874 28.665 43.6811 27.3525L45.8881 26.1522L22.9647 26.0272ZM99.0883 4.12464C96.6546 5.17834 95.2779 6.52285 94.299 9.00014C93.2232 11.7228 93.3277 15.3123 94.4888 17.9859C95.1855 19.59 96.6181 21.3058 98.2783 21.9607C99.1339 22.2983 101.344 22.7603 102.195 22.382L102.307 22.3247C104.223 22.019 105.708 21.2725 106.882 19.6534C108.597 17.2884 109.123 14.1409 108.666 11.2761C108.307 9.03008 107.345 6.61859 105.443 5.24387C103.438 3.7952 101.422 3.81939 99.0883 4.12464ZM48.8335 28.064C46.5803 28.6608 44.87 29.6063 43.6495 31.7085C42.195 34.2139 41.9418 37.8377 42.6889 40.6027C43.2532 42.6913 44.6161 44.7219 46.5193 45.8162C47.6328 46.4563 49.5126 46.7142 50.7869 46.5066C52.9047 46.1515 54.4136 45.414 55.6918 43.6212C57.2898 41.3797 57.9314 38.2816 57.4771 35.5715C57.0786 33.1943 56.0002 30.6448 53.9656 29.2142C52.4118 28.1217 50.6712 27.9359 48.8335 28.064ZM84.8636 28.1244C82.6331 28.9594 80.8013 30.2428 79.7867 32.4758C78.4602 35.3953 78.6763 39.2142 79.7966 42.1512C80.2998 43.4701 82.1502 45.4349 83.4469 46.0105C84.6508 46.5449 85.9679 46.5881 87.2583 46.5127C89.5125 46.2195 90.9057 45.3305 92.2883 43.5319C93.9764 41.3361 94.2626 38.0853 93.9074 35.4176C93.5825 32.9777 92.531 30.7731 90.5361 29.2523C88.8292 27.951 86.9009 27.9325 84.8636 28.1244ZM3.95667 26.0139L4.10834 42.7802C5.33569 41.9191 10.7353 37.6791 11.7997 37.8654C13.4372 38.152 15.4383 39.8141 16.8945 40.7209L19.9566 42.8616C19.6936 40.4423 19.8182 38.0065 19.8342 35.5785C19.8552 32.4096 19.8308 29.2466 19.984 26.0802L3.95667 26.0139ZM72.042 1.87431L71.9668 23.75L72.375 24.1294C73.9158 24.0542 74.6281 22.8996 76.0218 22.7772C78.0568 22.5984 83.8824 23.1397 85.2219 21.6648L85.3043 21.1972C85.8657 20.3569 85.9614 19.881 85.7486 18.875C85.2855 16.685 83.2231 14.8602 81.5528 13.5547C78.8121 11.4128 72.1913 8.34019 75.091 3.84096C75.5599 3.11334 76.6545 2.84545 76.9853 2.22759L77.07 2.05216L72.042 1.87431ZM92.3164 1.87487C90.865 1.96162 88.758 1.90081 87.4679 2.58811C86.764 2.96315 86.5978 3.49537 85.7159 3.69298C83.2525 4.24494 79.9565 3.64563 77.8242 5.125C77.5483 5.69553 77.4031 5.85277 77.6239 6.48565C78.4997 8.99563 82.7079 10.9469 84.7352 12.5505C86.4785 13.9294 87.6369 15.4046 88.5003 17.438C89.1372 18.9379 89.2781 20.4015 88.5506 21.9197C88.3419 22.3551 88.1068 22.6186 87.6917 22.8721L87.1888 24.125L96.0448 24.2594C95.4756 23.0414 94.3179 22.724 93.4504 21.7853C90.1523 18.2166 89.8619 12.3768 91.4644 7.97589C92.0627 6.33278 93.0788 4.83931 94.42 3.71013C95.0861 3.14939 95.9697 2.82198 96.3606 2.00375L92.3164 1.87487ZM116.299 28.374C116.816 32.3737 116.474 36.7995 116.467 40.8441C116.465 42.5105 116.847 45.4997 115.948 46.8819C118.515 46.4481 120.513 45.9032 122.676 44.4152L122.838 44.0558C123.892 43.6442 124.899 42.384 125.349 41.3606C126.279 39.2436 126.23 36.0393 125.386 33.9039C124.555 31.8005 122.368 30.2238 120.353 29.3546C119.256 28.8811 117.491 28.1891 116.299 28.374ZM52.963 4.34829C53.3302 5.99295 53.4159 21.851 52.844 22.7517L52.6951 22.958C55.0086 22.4714 57.113 21.9055 59.1238 20.6238L59.3258 20.2228C60.8351 19.3961 61.8481 18.0214 62.3302 16.3823C62.9607 14.2387 62.8611 11.285 61.7755 9.29721C60.3835 6.74813 57.3447 5.33077 54.6873 4.56086C54.1144 4.39488 53.5619 4.26424 52.963 4.34829ZM116.39 8.37424C116.776 11.4822 116.55 14.8448 116.543 17.9864C116.539 19.617 116.736 21.6032 116.493 23.1865C116.439 23.5379 116.196 23.9141 116.009 24.2105C117.41 24.2238 124.911 24.5924 125.595 24.1258C126.242 23.2394 126.056 22.0779 126.05 21.0342C126.037 18.7727 125.998 16.5111 125.956 14.25L125.58 13.6448C124.8 12.0388 119.05 9.15447 117.31 8.55117C117.016 8.44927 116.705 8.3477 116.39 8.37424ZM37.8266 1.86677L37.6543 2.25895C38.446 3.31436 39.4632 4.17548 40.3076 5.18795C42.9877 8.40147 45.3531 12.1617 46.6216 16.1576C47.0368 17.4654 47.3929 18.7584 47.6006 20.1165C47.7304 20.9648 47.7634 23.2772 48.125 23.9028C48.2736 24.16 48.6438 24.2636 48.9119 24.3014L49.9713 24.4094L50 1.91945L37.8266 1.86677ZM55.5716 1.87406C56.4047 2.77193 57.7437 2.68542 58.8614 3.16489C63.1789 5.01711 65.9155 9.25798 65.7436 13.9183C65.6329 16.9219 64.5142 19.6796 62.2913 21.7451C61.093 22.8586 59.63 23.5366 58.1229 24.1331L61.9375 24.2455L68.5654 24.2294C69.4844 22.9585 68.924 10.2368 68.9281 7.88667C68.9309 6.30673 69.2036 4.1847 68.9352 2.65421C68.8891 2.39108 68.7523 2.1168 68.6225 1.88593L55.5716 1.87406ZM22.9831 1.78928C22.9735 7.59969 22.9315 13.4129 22.9767 19.223C22.9861 20.4405 22.6967 22.6749 23.0434 23.75C23.084 23.8759 23.2907 24.0917 23.375 24.2083L24 24.2121C24.7412 23.3451 24.7402 21.2494 24.9559 20.0635C25.2514 18.4389 25.6558 16.8512 26.2434 15.3063C28.346 10.0349 31.1535 5.98537 35.1809 2.03221L22.9831 1.78928ZM28.913 17.8833C27.7401 19.1943 27.5724 22.3416 27.3026 24.1391L44.3125 24.2453L44.9581 24C45.0798 22.169 44.3888 19.7041 44.001 17.9103L28.913 17.8833ZM4.11013 7.42676C3.60447 8.6628 3.95057 10.5845 3.95758 11.9386C3.97859 15.9988 4.19107 20.1939 3.88701 24.2359L10.4322 24.2115C10.7518 22.889 10.5093 21.1773 10.4917 19.8092C10.4572 17.1317 10.4802 14.4513 10.4838 11.7735C8.78075 10.6115 7.0298 9.55292 5.31195 8.42277C4.90004 8.15178 4.578 7.70888 4.17484 7.46515L4.13608 7.44151L4.11013 7.42676ZM118.728 26.322C122.32 27.1255 125.266 28.1744 127.342 31.4421C128.888 33.8775 129.566 36.9047 128.932 39.7409C128.227 42.8929 126.563 45.3094 123.81 47.0563C123.082 47.5182 122.282 47.7716 121.458 48.0066C122.937 48.0707 129.807 47.895 130.677 48.4843L130.896 48.0391C131.356 46.8606 131.197 26.8959 130.677 25.716C129.344 26.3098 127.116 26.0164 125.66 26.0226C123.331 26.0326 121.049 26.1008 118.728 26.322ZM19.4691 7.73943L13.5013 11.6766L13.4015 23.875L13.7999 24.202L19.9365 24.252C19.75 22.1961 20.0816 8.37874 19.4691 7.73943ZM36.0223 5.11049C33.1773 8.37899 31.137 11.5086 29.3386 15.4646L36.3376 15.4401L43.1175 15.4465C42.0435 13.0603 38.5882 6.11168 36.2272 5.18126L36.0486 5.11755L36.0223 5.11049ZM4.23302 1.87451C3.83343 2.56943 3.99353 3.19527 4.125 3.94873C4.64007 4.92073 5.75918 5.45254 6.66101 6.02749C8.41928 7.14846 10.1737 8.28756 11.8975 9.46091L16.5519 6.41452C17.8139 5.61723 19.5711 4.84938 19.9301 3.2884C20.027 2.86707 19.9969 2.50548 19.875 2.09393C18.2759 1.63964 16.16 1.84189 14.4997 1.83306C11.0832 1.81489 7.6474 1.75959 4.23302 1.87451ZM105.81 1.87491C106.319 2.86853 107.617 3.30777 108.456 4.1138C111.866 7.39091 112.574 13.2583 111.168 17.6109C110.484 19.7303 109.039 22.2916 106.978 23.3399L105.15 24.1372L108.687 24.2358L113.322 24.1985C113.976 23.1059 113.549 20.5463 113.56 19.2119C113.598 14.8877 113.675 10.5655 113.601 6.24125C113.582 5.1348 113.769 3.5896 113.506 2.5395C113.448 2.30823 113.361 2.08468 113.245 1.87617L105.81 1.87491ZM11.6568 40.9384C10.1654 41.9367 8.68212 42.9509 7.16905 43.9161C6.08482 44.6076 4.76025 45.2551 4.0753 46.375L3.89064 47.5371C4.08597 47.7826 4.15129 47.9795 4.47228 48.0159L12.3355 48.1822C14.0604 48.1599 15.7854 48.1363 17.5101 48.1026C18.216 48.0889 19.0797 48.1845 19.72 47.875C19.9874 47.1215 19.8444 46.8386 19.6642 46.0774C18.4965 44.8278 16.7104 43.9549 15.2996 42.9858C14.2229 42.2462 13.0027 41.0576 11.6568 40.9384ZM118.071 1.87498L116.625 2.03918C116.223 2.75338 116.466 3.70465 116.571 4.48222C117.389 5.92638 121.198 7.50006 122.733 8.3405C123.162 8.57527 124.093 9.02176 124.321 9.45029L125.625 10.0309L125.953 9.75C125.988 7.80337 126.564 3.54395 125.711 1.88626L118.071 1.87498ZM130.678 1.00594C130.291 1.57595 129.637 1.91568 129.068 2.27893C129.266 7.86718 129.053 13.5327 129.062 19.1322C129.064 20.3161 128.763 22.6536 129.125 23.728C129.149 23.8003 129.391 24 129.462 24.0659C129.809 24.3894 130.241 24.5607 130.674 24.7396L130.906 24.2623C131.367 23.0182 131.197 2.143 130.678 1.00594ZM0 1.36565V24.6356L0.964617 23.875C1.07399 18.5032 1.04871 13.1247 1.02183 7.75223C1.01529 6.44675 1.3365 3.40102 0.773694 2.25C0.639872 1.97632 0.212155 1.60815 0 1.36565ZM0 25.5963V48.6008L0.702334 47.9581C1.40496 46.0765 1.00253 42.8597 1.00617 40.8157C1.01413 36.3343 1.27219 31.6672 0.9525 27.2066C0.883739 26.2471 0.715957 26.2168 0 25.5963Z" fill="#F5F5F5"/>
</g>
<defs>
<clipPath id="clip0_493_991">
<rect width="131" height="50" fill="white"/>
</clipPath>
</defs>
</svg>
